<svg width="1280" height="800" viewBox="0 0 1280 800" fill="none" xmlns="http://www.w3.org/2000/svg">
  <defs>
    <linearGradient id="bg2" x1="160" y1="40" x2="1080" y2="760" gradientUnits="userSpaceOnUse">
      <stop stop-color="#FFF9F3"/>
      <stop offset="1" stop-color="#FFF0E3"/>
    </linearGradient>
    <linearGradient id="panel2" x1="0" y1="0" x2="780" y2="500" gradientUnits="userSpaceOnUse">
      <stop stop-color="#FFFFFF"/>
      <stop offset="1" stop-color="#FFF8F1"/>
    </linearGradient>
    <filter id="shadow2" x="0" y="0" width="1280" height="800" filterUnits="userSpaceOnUse">
      <feDropShadow dx="0" dy="24" stdDeviation="28" flood-color="#9A5B12" flood-opacity="0.16"/>
    </filter>
  </defs>

  <rect width="1280" height="800" rx="40" fill="url(#bg2)"/>
  <circle cx="1136" cy="122" r="92" fill="#FFE1BF"/>
  <circle cx="188" cy="700" r="130" fill="#FFE7D0"/>

  <rect x="76" y="92" width="432" height="612" rx="36" fill="#FFFFFF" filter="url(#shadow2)"/>
  <text x="136" y="186" fill="#C26A14" font-size="20" font-family="Arial" font-weight="700">One-click cleanup</text>
  <text x="136" y="256" fill="#111827" font-size="58" font-family="Arial" font-weight="700">Add delete buttons</text>
  <text x="136" y="324" fill="#111827" font-size="58" font-family="Arial" font-weight="700">to every chat row</text>
  <text x="136" y="392" fill="#6B7280" font-size="28" font-family="Arial">No more opening the three-dot menu just</text>
  <text x="136" y="432" fill="#6B7280" font-size="28" font-family="Arial">to remove old conversations.</text>

  <rect x="136" y="506" width="290" height="56" rx="18" fill="#FFF1E2"/>
  <text x="164" y="542" fill="#C26A14" font-size="22" font-family="Arial" font-weight="700">Fast sidebar cleanup</text>

  <rect x="548" y="112" width="656" height="576" rx="38" fill="url(#panel2)" filter="url(#shadow2)"/>
  <rect x="580" y="154" width="248" height="40" rx="12" fill="#FFF1E2"/>
  <text x="616" y="181" fill="#C26A14" font-size="18" font-family="Arial" font-weight="700">Gemini conversation list</text>

  <rect x="596" y="226" width="560" height="78" rx="20" fill="#FFFFFF" stroke="#F2D8BC"/>
  <rect x="614" y="245" width="226" height="14" rx="7" fill="#D8DEE9"/>
  <rect x="614" y="270" width="168" height="10" rx="5" fill="#E6EAF0"/>
  <circle cx="1106" cy="265" r="18" fill="#DC2626"/>
  <g transform="translate(1097 253)" fill="none" stroke="#FFFFFF" stroke-width="2.2" stroke-linecap="round" stroke-linejoin="round">
    <path d="M2 4H16"/>
    <path d="M6 4V2.8C6 1.8 6.8 1 7.8 1H10.2C11.2 1 12 1.8 12 2.8V4"/>
    <path d="M5.2 6.2L6 15C6.1 16.1 7 17 8.1 17H9.9C11 17 11.9 16.1 12 15L12.8 6.2"/>
    <path d="M8 8.2V13.2"/>
    <path d="M12 8.2V13.2"/>
  </g>

  <rect x="596" y="322" width="560" height="78" rx="20" fill="#FFFFFF" stroke="#F2D8BC"/>
  <rect x="614" y="341" width="240" height="14" rx="7" fill="#D8DEE9"/>
  <rect x="614" y="366" width="182" height="10" rx="5" fill="#E6EAF0"/>
  <circle cx="1106" cy="361" r="18" fill="#DC2626"/>
  <g transform="translate(1097 349)" fill="none" stroke="#FFFFFF" stroke-width="2.2" stroke-linecap="round" stroke-linejoin="round">
    <path d="M2 4H16"/>
    <path d="M6 4V2.8C6 1.8 6.8 1 7.8 1H10.2C11.2 1 12 1.8 12 2.8V4"/>
    <path d="M5.2 6.2L6 15C6.1 16.1 7 17 8.1 17H9.9C11 17 11.9 16.1 12 15L12.8 6.2"/>
    <path d="M8 8.2V13.2"/>
    <path d="M12 8.2V13.2"/>
  </g>

  <rect x="596" y="418" width="560" height="78" rx="20" fill="#FFFFFF" stroke="#F2D8BC"/>
  <rect x="614" y="437" width="214" height="14" rx="7" fill="#D8DEE9"/>
  <rect x="614" y="462" width="190" height="10" rx="5" fill="#E6EAF0"/>
  <circle cx="1106" cy="457" r="18" fill="#DC2626"/>
  <g transform="translate(1097 445)" fill="none" stroke="#FFFFFF" stroke-width="2.2" stroke-linecap="round" stroke-linejoin="round">
    <path d="M2 4H16"/>
    <path d="M6 4V2.8C6 1.8 6.8 1 7.8 1H10.2C11.2 1 12 1.8 12 2.8V4"/>
    <path d="M5.2 6.2L6 15C6.1 16.1 7 17 8.1 17H9.9C11 17 11.9 16.1 12 15L12.8 6.2"/>
    <path d="M8 8.2V13.2"/>
    <path d="M12 8.2V13.2"/>
  </g>

  <rect x="596" y="530" width="300" height="96" rx="24" fill="#FFF7ED" stroke="#F5D7BA"/>
  <text x="630" y="570" fill="#111827" font-size="24" font-family="Arial" font-weight="700">Visible delete icon</text>
  <text x="630" y="604" fill="#6B7280" font-size="18" font-family="Arial">Optional setting you can toggle anytime.</text>
</svg>
